<?xml version="1.0" encoding="utf-8"?>
<!-- Generator: Adobe Illustrator 15.0.0, SVG Export Plug-In . SVG Version: 6.00 Build 0)  -->
<!DOCTYPE svg PUBLIC "-//W3C//DTD SVG 1.1//EN" "http://www.w3.org/Graphics/SVG/1.1/DTD/svg11.dtd">
<svg version="1.1" id="Layer_2" xmlns="http://www.w3.org/2000/svg" xmlns:xlink="http://www.w3.org/1999/xlink" x="0px" y="0px"
	 width="419.53px" height="595.28px" viewBox="0 0 419.53 595.28" enable-background="new 0 0 419.53 595.28" xml:space="preserve">
<path d="M405.058,229.388l-0.038-0.886c-1.13-26.053-11.97-48.606-30.593-63.56c-11.059-8.84-23.836-14.615-37.542-17.153v-1.493
	h-2.076c-8.333-55.972-39.74-106.075-98.148-107.787l-2.164-0.022c-18.305,0-47.67,4.987-71.571,32.188
	c-6.774-1.382-13.973-2.062-21.665-2.062c-27.723,0-51.646,9.878-69.201,28.593c-14.548,15.526-21.434,33.77-24.623,49.09h-2.57
	v22.281c-0.054,2.269-0.047,4.205,0,5.794V434.29l-0.019,0.037v9.758c0,56.154,79.399,67.937,146.008,67.937
	c56.834,0,122.987-8.581,141.177-45.974l4.852-4.854v-51.201c14.086-2.671,26.869-8.34,37.551-16.909
	c18.576-14.864,29.451-37.589,30.622-63.989l0.038-0.925L405.058,229.388z"/>
<g>
	<g>
		<path fill="#00A240" d="M86.196,187.626v256.412c0,0-0.019,0.039-0.019,0.047c0,14.695,46.872,26.607,104.679,26.607
			c57.827,0,104.69-11.912,104.69-26.607v-0.008h0.009V187.626H86.196z M135.859,413.911h-14.124V239.995h14.124V413.911z
			 M197.92,413.911h-14.115V239.995h14.115V413.911z M260.018,413.911h-14.106V239.995h14.106V413.911z"/>
	</g>
	<path fill="#00A240" d="M86.244,174.802c-0.086-1.244-1.775-30.394,15.975-49.341c9.654-10.289,22.8-15.52,39.041-15.52
		c17.495,0,27.689,5.002,37.125,14.865c8.675-22.211,24.641-45.448,57.067-44.983c58.055,1.699,60.256,91.163,60.313,94.932h-21.87
		c-0.037-0.712-2.373-71.989-39.089-73.062c-0.323,0-0.646-0.01-0.94-0.01c-35.538,0-42.363,58.406-42.762,62.335
		c-0.019,0.303-0.037,0.475-0.057,0.55l-21.756-0.019c0.038-0.133,0.038-2.62,0.076-2.905c0.132-1.86,0.683-13.422-6.36-21.244
		c-5.107-5.695-10.176-8.591-21.747-8.591c-10.071,0-17.598,2.791-23.019,8.543c-11.257,11.913-10.194,34.201-10.175,34.409
		L86.244,174.802z"/>
	<path fill="#00A240" d="M318.204,370.455c-4.728,0-4.366-0.532-5.23-0.693l-0.048-21.537c3.854,0.626,15.207,1.024,22.089-4.519
		c4.271-3.493,6.54-9.018,6.901-16.934l-0.02-95.985c-0.342-7.461-2.619-13.023-6.968-16.498
		c-8.163-6.568-21.794-4.461-21.945-4.461l-0.01-21.528c2.401-0.398,19.83-3.721,35.644,8.923
		c6.454,5.183,14.333,15.111,15.111,33.07l0.038,96.973c-0.816,18.452-8.695,28.382-15.149,33.545
		C338.603,368.841,326.405,370.455,318.204,370.455z"/>
</g>
<line fill="none" stroke="#000000" stroke-miterlimit="10" x1="152.457" y1="510.548" x2="152.457" y2="510.548"/>
<g>
	<polyline fill="none" stroke="#000000" stroke-miterlimit="10" points="190.806,574.927 152.457,510.548 190.806,574.927 
		235.612,509.434 	"/>
	<polyline stroke="#000000" stroke-miterlimit="10" points="190.806,574.927 235.612,509.434 152.457,510.548 	"/>
</g>
</svg>
